# xmcd
#
# Track frame offsets:
#	150
#	14544
#	30214
#	40366
#	57571
#	86320
#	110668
#	129778
#	154233
#	169494
#	181940
#	196365
#
# Disc length: 2880 seconds
#
# Revision: 1
# Processed by: cddbd v1.5.1PL0 Copyright (c) Steve Scherf et al.
# Submitted via: audiograbber 1.83.01
#
DISCID=990b3e0c
DTITLE=Olson, Hans - Kachina Blues '95
DYEAR=1995
DGENRE=Blues
TTITLE0=One Of These Mornings
TTITLE1=Full Time Love
TTITLE2=Me And Brownie McGhee
TTITLE3=When I Get The Blues
TTITLE4=New Moon Trouble
TTITLE5=Betty And Dupree
TTITLE6=Outside Looking In
TTITLE7=Mr. Unlucky
TTITLE8=Phoenix Boogie
TTITLE9=She Ain't No Singer
TTITLE10=The Sun Club Jump
TTITLE11=Sail On
EXTD=
EXTT0=
EXTT1=
EXTT2=
EXTT3=
EXTT4=
EXTT5=
EXTT6=
EXTT7=
EXTT8=
EXTT9=
EXTT10=
EXTT11=
PLAYORDER=
